<svg id="Layer_1" data-name="Layer 1" xmlns="http://www.w3.org/2000/svg" viewBox="0 0 2000 2000"><defs><style>.cls-1{fill:#fff;}.cls-2{fill:#2c4bcb;}</style></defs><path class="cls-1" d="M300.2,1641.14v-127h66.56l38.92,71.34,39.6-71.34h63.84v127h-48v-79.2l-44.55,79.2H391.85l-44.37-79.2v79.2Z"/><path class="cls-1" d="M583.36,1641.14v-47.8l-69.47-79.19h58L609,1558l37.73-43.86h53.08l-67.93,79.54v47.45Z"/><path class="cls-2" d="M704.55,1514.15H845v31.06H752.34v15.88h90.8V1592h-90.8v17.41h94v31.75H704.55Z"/><path class="cls-2" d="M860.38,1641.14v-127H950.5a185.72,185.72,0,0,1,37.55,3.41q16.4,3.42,26.46,9a55.17,55.17,0,0,1,16.47,13.65,47.36,47.36,0,0,1,8.79,16.22,63.27,63.27,0,0,1,2.39,17.75v5.12a69.65,69.65,0,0,1-2.13,17.58,48.48,48.48,0,0,1-8.37,16.56,55,55,0,0,1-16,14.25q-9.82,5.88-26.46,9.64t-38.49,3.76Zm48.48-93.71v60.08h36q46.93,0,46.94-29.7v-1q0-29.36-46.94-29.36Z"/><path class="cls-2" d="M1053.77,1514.15h140.47v31.06h-92.68v15.88h90.8V1592h-90.8v17.41h94v31.75H1053.77Z"/><path class="cls-2" d="M1209.6,1514.15h54.28l73.74,72.2v-72.2h48.13v127h-48.48l-79.54-77v77H1209.6Z"/><path class="cls-1" d="M1447.36,1607.85v33.29h-48.13v-33.29Z"/><path class="cls-1" d="M1593,1641.14l-9.9-20.49h-72.54l-9.73,20.49h-49.16l62.81-127h65.2l66.4,127Zm-25.44-52.23-21.33-43.7-20.83,43.7Z"/><path class="cls-1" d="M1699.8,1514.15v127h-48.3v-127Z"/><circle class="cls-2" cx="1000" cy="1000" r="441.86"/><polygon class="cls-1" points="1147.12 815.04 783.63 903.99 812.67 804.39 1075.37 740.11 1147.12 815.04"/><polygon class="cls-1" points="1215.78 1095.58 1186.73 1195.18 924.04 1259.46 852.29 1184.54 1215.78 1095.58"/><polygon class="cls-1" points="1262.44 935.49 1247.92 985.29 772.84 1101.55 736.97 1064.08 751.49 1014.28 1226.57 898.03 1262.44 935.49"/></svg>