<svg id="Layer_1" data-name="Layer 1" xmlns="http://www.w3.org/2000/svg" viewBox="0 0 150 30"><defs><style>.cls-1{fill:#fff;}</style></defs><path class="cls-1" d="M14.89,18.21h5.16a1.93,1.93,0,0,0,2.14,1.93c1,0,2-.56,2-1.55,0-1.14-1.42-1.47-3.14-1.88-2.63-.66-6-1.46-6-5.59,0-3.58,2.62-5.62,6.9-5.62s6.85,2.23,6.85,5.92h-5A1.68,1.68,0,0,0,22,9.74c-.89,0-1.75.38-1.75,1.23,0,1,1.37,1.37,3.08,1.8,2.67.69,6.16,1.58,6.16,5.73,0,4-3,6-7.26,6C17.76,24.52,14.89,22.17,14.89,18.21Z"/><path class="cls-1" d="M41.66,24.53c-5.84,0-10-4-10-9.53s4.16-9.53,10-9.53,10,4,10,9.53S47.48,24.53,41.66,24.53Zm0-4.65A4.65,4.65,0,0,0,46.42,15a4.78,4.78,0,1,0-9.55,0A4.68,4.68,0,0,0,41.66,19.88Z"/><path class="cls-1" d="M63.59,24.53A9.36,9.36,0,0,1,53.94,15a9.36,9.36,0,0,1,9.65-9.54,9,9,0,0,1,9.17,7.74H67.7a4.31,4.31,0,0,0-4.11-3.07c-2.56,0-4.45,2.06-4.45,4.87a4.52,4.52,0,0,0,4.45,4.84,4.17,4.17,0,0,0,4.11-3.33h5.11a9.06,9.06,0,0,1-9.23,8Z"/><path class="cls-1" d="M94.73,24.53c-5.83,0-10-4-10-9.53s4.16-9.53,10-9.53,10,4,10,9.53-4.15,9.53-10,9.53Zm0-4.65A4.66,4.66,0,0,0,99.5,15a4.78,4.78,0,1,0-9.56,0,4.69,4.69,0,0,0,4.79,4.88Z"/><path class="cls-1" d="M140,14.08a4.62,4.62,0,0,0,2.3-3.92c0-2.68-2.35-4.64-5.57-4.64h-8.2v11a2.81,2.81,0,1,1-5.62,0v-11h-5.11v6.54h-5.45V5.52h-5V23.66h5v-7h5.45a7.08,7.08,0,0,0,5,7,9.65,9.65,0,0,0,5.92,0,7,7,0,0,0,4.4-4,3.63,3.63,0,0,0,.26-1.34v-2h2.71a1.66,1.66,0,1,1,0,3.3h-1.93a7.73,7.73,0,0,1-3.23,4.1h6c3.35,0,5.89-2.23,5.89-5.16A4.79,4.79,0,0,0,140,14.08Zm-4.14-1.51h-2.52V9.41h2.52A1.53,1.53,0,0,1,137.57,11,1.53,1.53,0,0,1,135.88,12.57Z"/><path class="cls-1" d="M7.19,5.93v5.32l5.07-1.86V5.93Zm0,18.14h5.07V11.25H7.19Z"/><path class="cls-1" d="M77,23.66h5.07V10.84H77ZM77,5.52v5.3L82.09,9V5.52Z"/></svg>