<svg id="Layer_1" data-name="Layer 1" xmlns="http://www.w3.org/2000/svg" xmlns:xlink="http://www.w3.org/1999/xlink" viewBox="0 0 150 30"><defs><style>.cls-1{fill:#fff;}</style></defs><image width="180" height="180" transform="translate(26.68 3.71) scale(0.13)" xlink:href="../../../Hert/Logoo/Inlet+Health--Icon--Option+-+01%201.png"/><path class="cls-1" d="M54.67,4.24h5.87v21H54.67Z"/><path class="cls-1" d="M80.13,15.36v9.87H74.55v-9.1c0-1.89-.7-2.82-2.11-2.82-1.74,0-2.74,1.21-2.74,3.27v8.65H64.12V9H68l.76,1.67a6.73,6.73,0,0,1,5.1-2.15C77.66,8.56,80.13,11.23,80.13,15.36Z"/><path class="cls-1" d="M83.47,3.19h5.58v22H83.47Z"/><path class="cls-1" d="M109.25,17a10.64,10.64,0,0,1-.11,1.48h-12a3.14,3.14,0,0,0,3.31,2.82,3.23,3.23,0,0,0,2.92-1.52h5.56a8.88,8.88,0,0,1-17.28-2.64,8.45,8.45,0,0,1,8.8-8.62c5.22,0,8.83,3.73,8.83,8.48Zm-12-1.61h6.55a3.26,3.26,0,0,0-3.35-2.49A3.13,3.13,0,0,0,97.21,15.37Z"/><path class="cls-1" d="M122.47,20.35v4.88h-3.83c-3.59,0-5.76-2.19-5.76-5.79V13.33h-3V12l7.26-7.73h1.14V9h4.07v4.29h-3.92v5.16a1.72,1.72,0,0,0,1.87,1.86Z"/></svg>