<svg id="Layer_1" data-name="Layer 1" xmlns="http://www.w3.org/2000/svg" viewBox="0 0 150 30"><defs><style>.cls-1{fill:#fff;}</style></defs><polygon class="cls-1" points="93.1 4.53 91.23 6.4 91.23 3.76 89.76 3.76 89.76 6.4 87.89 4.53 86.85 5.58 88.72 7.44 86.08 7.44 86.08 8.92 88.72 8.92 86.85 10.79 87.89 11.83 89.76 9.96 89.76 7.44 92.28 7.44 94.14 5.58 93.1 4.53"/><path d="M94.72,7.64V8.72H91.79l.35.34.73.74.06.06h1.79v1.07H92.49L91.38,9.82,91,9.48V12.4H90V7.64h4.76m.2-.2H89.76V12.6h1.48V10l1.16,1.17h2.52V9.66H93l-.73-.74h2.64V7.44Z"/><path class="cls-1" d="M42.25,7.53V11.6h9v3.75h-9v7.3H38.1V3.79H52.47V7.53Z"/><path class="cls-1" d="M63.11,22.65V20.59a9,9,0,0,1-.76.88,5.66,5.66,0,0,1-.93.75,4.36,4.36,0,0,1-1.14.51,5.31,5.31,0,0,1-5-1.23A5.68,5.68,0,0,1,54,17.56V8.21h4.09v8a3.24,3.24,0,0,0,.65,2.19,2.31,2.31,0,0,0,1.83.74,2.46,2.46,0,0,0,1.88-.74,3.14,3.14,0,0,0,.68-2.19v-8h4.1V22.65Z"/><path class="cls-1" d="M83.64,22.88a5.59,5.59,0,0,1-1.51,2.36,6.23,6.23,0,0,1-2.52,1.35,12.82,12.82,0,0,1-3.53.43,14.46,14.46,0,0,1-3.4-.39,12.56,12.56,0,0,1-3-1.12l1.4-3.07a12.38,12.38,0,0,0,2.28,1,9,9,0,0,0,2.6.35,4.24,4.24,0,0,0,3.11-1,3.91,3.91,0,0,0,1-2.94v-.7a7.27,7.27,0,0,1-2,1.73,5.45,5.45,0,0,1-2.72.62A6.63,6.63,0,0,1,73,21a6.06,6.06,0,0,1-2-1.3,6.35,6.35,0,0,1-1.41-2.12A7.35,7.35,0,0,1,69,14.73v-.05a7.17,7.17,0,0,1,.54-2.87,6.54,6.54,0,0,1,1.43-2.12,6.14,6.14,0,0,1,2-1.31,6.76,6.76,0,0,1,2.4-.44,5.41,5.41,0,0,1,2.75.62A7.84,7.84,0,0,1,80,10.09V8.21h4.1V19.39A10.78,10.78,0,0,1,83.64,22.88Zm-3.55-8.2a3.32,3.32,0,0,0-.27-1.35A3.13,3.13,0,0,0,78,11.58a4,4,0,0,0-1.4-.25,3.85,3.85,0,0,0-1.38.25,3.29,3.29,0,0,0-1.11.68,3.36,3.36,0,0,0-.74,1.07,3.32,3.32,0,0,0-.27,1.35v.05a3.12,3.12,0,0,0,1,2.43,3.55,3.55,0,0,0,2.5.91,4,4,0,0,0,1.4-.24,3.11,3.11,0,0,0,1.12-.69,3.07,3.07,0,0,0,.74-1.06,3.32,3.32,0,0,0,.27-1.35Z"/><path class="cls-1" d="M96.94,6.62V3h4.31V6.62Zm.11,16V8.21h4.09V22.65Z"/><path class="cls-1" d="M110.42,22.67a6.58,6.58,0,0,1-1.81.23,6.92,6.92,0,0,1-1.71-.2,3.15,3.15,0,0,1-1.32-.72,3.3,3.3,0,0,1-.86-1.33,5.94,5.94,0,0,1-.31-2.09V11.71h-1.73V8.21h1.73V4.52h4.09V8.21h3.4v3.5h-3.4v6.17q0,1.41,1.32,1.41a4.12,4.12,0,0,0,2-.52v3.29A6.55,6.55,0,0,1,110.42,22.67Z"/></svg>