<svg id="Layer_1" data-name="Layer 1" xmlns="http://www.w3.org/2000/svg" viewBox="0 0 150 30"><defs><style>.cls-1{fill:#fff;}</style></defs><path class="cls-1" d="M79.24,22.46l-2.52-5.55H76l-2.44,5.53L73,20.84A11.4,11.4,0,1,0,58,25.3a11.13,11.13,0,0,0,2.62,1L62.87,24l.3-.3,2.54,2.55a11.13,11.13,0,0,0,2.62-1,11.59,11.59,0,0,0,2.9-2.11l1,3h2l2.09-4.85,2.12,4.88h2l3.07-9.41H81.08ZM70.31,20.4a8.89,8.89,0,0,1-3.89,3l-3.25-3.25-3.26,3.25h0a8.86,8.86,0,1,1,10.4-3Z"/><path class="cls-1" d="M89,16.34a4.8,4.8,0,0,0-4.86,5,4.88,4.88,0,0,0,9.52,1.61H91A2.21,2.21,0,0,1,89,24a2.19,2.19,0,0,1-2.29-2h7.1a6.13,6.13,0,0,0,0-.74h0A4.78,4.78,0,0,0,89,16.34Zm-2.22,3.94A2.19,2.19,0,0,1,89,18.51a2.3,2.3,0,0,1,2.32,1.77Z"/><rect class="cls-1" x="95.7" y="13.28" width="2.54" height="12.98"/></svg>